<svg width="23" height="23" viewBox="0 0 23 23" fill="none" xmlns="http://www.w3.org/2000/svg">
<path d="M6.17918 7.63736C6.48043 4.92614 8.7721 2.875 11.5 2.875V2.875C14.2279 2.875 16.5196 4.92614 16.8208 7.63736L17.0621 9.80915C17.1859 10.9233 17.5486 11.9976 18.1253 12.9588L18.6792 13.8821C19.1479 14.6632 19.3822 15.0537 19.3553 15.375C19.331 15.6664 19.1803 15.9325 18.943 16.1033C18.6813 16.2917 18.2258 16.2917 17.3149 16.2917H5.68506C4.77416 16.2917 4.31872 16.2917 4.05699 16.1033C3.8197 15.9325 3.66905 15.6664 3.64467 15.375C3.61779 15.0537 3.85211 14.6632 4.32076 13.8821L4.87471 12.9588C5.45145 11.9976 5.81408 10.9233 5.93787 9.80915L6.17918 7.63736Z" stroke="#979797" stroke-width="2"/>
<path d="M7.66684 16.2917C7.66684 16.7951 7.76599 17.2935 7.95863 17.7586C8.15127 18.2237 8.43364 18.6463 8.78959 19.0022C9.14555 19.3582 9.56813 19.6406 10.0332 19.8332C10.4983 20.0258 10.9968 20.125 11.5002 20.125C12.0036 20.125 12.502 20.0258 12.9671 19.8332C13.4322 19.6406 13.8548 19.3582 14.2107 19.0022C14.5667 18.6463 14.8491 18.2237 15.0417 17.7586C15.2343 17.2935 15.3335 16.7951 15.3335 16.2917" stroke="#979797" stroke-width="2" stroke-linecap="round"/>
</svg>
