<svg width="25" height="22" viewBox="0 0 25 22" fill="none" xmlns="http://www.w3.org/2000/svg">
<path fill-rule="evenodd" clip-rule="evenodd" d="M21.875 11C21.875 15.5563 17.6777 19.25 12.5 19.25C7.32233 19.25 3.125 15.5563 3.125 11C3.125 6.44365 7.32233 2.75 12.5 2.75C17.6777 2.75 21.875 6.44365 21.875 11ZM16.8522 13.5087C17.424 12.778 17.75 11.9064 17.75 11C17.75 8.631 15.5234 6.5 12.5 6.5C11.4434 6.5 10.4841 6.76025 9.68321 7.19997L16.8522 13.5087ZM8.14779 8.49131L15.3168 14.8C14.5159 15.2397 13.5566 15.5 12.5 15.5C9.47656 15.5 7.25 13.369 7.25 11C7.25 10.0936 7.57596 9.22201 8.14779 8.49131ZM12.5 4.5C8.61988 4.5 5.25 7.29386 5.25 11C5.25 14.7061 8.61988 17.5 12.5 17.5C16.3801 17.5 19.75 14.7061 19.75 11C19.75 7.29386 16.3801 4.5 12.5 4.5Z" fill="#EF0606"/>
</svg>
