<svg width="37" height="35" viewBox="0 0 37 35" fill="none" xmlns="http://www.w3.org/2000/svg">
<path d="M28.7997 9.3616L19.1008 5.42961C18.7153 5.27332 18.2841 5.27332 17.8985 5.42961L8.19962 9.3616C7.52408 9.63547 7.11904 10.3313 7.21454 11.054L8.33548 19.5368C8.56074 21.2415 9.44237 22.7909 10.7927 23.8554L17.5092 29.1499C18.0901 29.6078 18.9092 29.6078 19.4902 29.1499L26.2066 23.8554C27.557 22.7909 28.4386 21.2415 28.6639 19.5368L29.7848 11.054C29.8803 10.3313 29.4753 9.63547 28.7997 9.3616Z" stroke="#A42823" stroke-width="1.2" stroke-linecap="round"/>
<path d="M13.8753 17.5L18.0807 21.4781C18.3021 21.6874 18.6576 21.6519 18.833 21.4029L24.667 13.125" stroke="#A42823" stroke-width="1.2" stroke-linecap="round"/>
</svg>
