<svg width="21" height="30" viewBox="0 0 21 30" fill="none" xmlns="http://www.w3.org/2000/svg">
<path d="M10.5 26C12.8489 26 14.8731 24.6386 16.269 22.6445C17.667 20.6473 18.5 17.9414 18.5 15C18.5 12.0586 17.667 9.3527 16.269 7.35547C14.8731 5.3614 12.8489 4 10.5 4C8.15113 4 6.12687 5.3614 4.73102 7.35547C3.33296 9.3527 2.5 12.0586 2.5 15C2.5 17.9414 3.33296 20.6473 4.73102 22.6445C6.12687 24.6386 8.15113 26 10.5 26Z" stroke="#33363F" stroke-width="2"/>
<path d="M16.0685 7.04505C14.5916 4.93526 12.5886 3.75 10.5 3.75C8.41142 3.75 6.40838 4.93526 4.93153 7.04505C3.45468 9.15483 2.625 12.0163 2.625 15C2.625 17.9837 3.45469 20.8452 4.93153 22.955L10.5 15L16.0685 7.04505Z" fill="#33363F"/>
</svg>
