<svg width="30" height="30" viewBox="0 0 30 30" fill="none" xmlns="http://www.w3.org/2000/svg">
<path d="M2.5 10.25C2.5 8.36438 2.5 7.42157 3.08579 6.83579C3.67157 6.25 4.61438 6.25 6.5 6.25H23.5C25.3856 6.25 26.3284 6.25 26.9142 6.83579C27.5 7.42157 27.5 8.36438 27.5 10.25V11.5C27.5 11.9714 27.5 12.2071 27.3536 12.3536C27.2071 12.5 26.9714 12.5 26.5 12.5H3.5C3.0286 12.5 2.79289 12.5 2.64645 12.3536C2.5 12.2071 2.5 11.9714 2.5 11.5V10.25Z" stroke="#A42823"/>
<path d="M2.5 23.5C2.5 25.3856 2.5 26.3284 3.08579 26.9142C3.67157 27.5 4.61438 27.5 6.5 27.5H23.5C25.3856 27.5 26.3284 27.5 26.9142 26.9142C27.5 26.3284 27.5 25.3856 27.5 23.5V16C27.5 15.5286 27.5 15.2929 27.3536 15.1464C27.2071 15 26.9714 15 26.5 15H3.5C3.0286 15 2.79289 15 2.64645 15.1464C2.5 15.2929 2.5 15.5286 2.5 16V23.5Z" stroke="#A42823"/>
<path d="M8.75 3.75L8.75 7.5" stroke="#A42823" stroke-width="2" stroke-linecap="round"/>
<path d="M21.25 3.75L21.25 7.5" stroke="#A42823" stroke-width="2" stroke-linecap="round"/>
</svg>
