<svg width="34" height="34" viewBox="0 0 34 34" fill="none" xmlns="http://www.w3.org/2000/svg">
<path d="M16.9998 7.08334L16.2927 6.37624L16.9998 5.66913L17.7069 6.37624L16.9998 7.08334ZM17.9998 19.8333C17.9998 20.3856 17.5521 20.8333 16.9998 20.8333C16.4476 20.8333 15.9998 20.3856 15.9998 19.8333L17.9998 19.8333ZM9.2094 13.4596L16.2927 6.37624L17.7069 7.79045L10.6236 14.8738L9.2094 13.4596ZM17.7069 6.37624L24.7903 13.4596L23.3761 14.8738L16.2927 7.79045L17.7069 6.37624ZM17.9998 7.08334L17.9998 19.8333L15.9998 19.8333L15.9998 7.08334L17.9998 7.08334Z" fill="#33363F"/>
<path d="M7.0835 22.6667L7.0835 24.0833C7.0835 25.6481 8.35202 26.9167 9.91683 26.9167L24.0835 26.9167C25.6483 26.9167 26.9168 25.6481 26.9168 24.0833V22.6667" stroke="#33363F" stroke-width="2"/>
</svg>
