<svg width="57" height="36" viewBox="0 0 57 36" fill="none" xmlns="http://www.w3.org/2000/svg">
<path d="M3.13369 18.7506L9.87849 25.3884C10.1325 25.6384 10.2596 25.7634 10.4119 25.7907C10.4702 25.8011 10.5298 25.8011 10.5881 25.7907C10.7404 25.7634 10.8675 25.6384 11.1215 25.3884L17.8663 18.7506C19.6635 16.9819 19.884 14.1598 18.3833 12.1334L17.9695 11.5746C16.1159 9.07184 12.2562 9.47856 10.965 12.3127C10.7833 12.7116 10.2167 12.7116 10.035 12.3127C8.74385 9.47856 4.8841 9.07184 3.03054 11.5746L2.61669 12.1334C1.11597 14.1598 1.33646 16.9819 3.13369 18.7506Z" fill="#A42823" stroke="#A42823" stroke-width="2"/>
</svg>
