<svg width="29" height="29" viewBox="0 0 29 29" fill="none" xmlns="http://www.w3.org/2000/svg">
<path d="M3.625 11.625C3.625 7.85376 3.625 5.96815 4.79657 4.79657C5.96815 3.625 7.85376 3.625 11.625 3.625H17.375C21.1462 3.625 23.0319 3.625 24.2034 4.79657C25.375 5.96815 25.375 7.85376 25.375 11.625V17.375C25.375 21.1462 25.375 23.0319 24.2034 24.2034C23.0319 25.375 21.1462 25.375 17.375 25.375H11.625C7.85376 25.375 5.96815 25.375 4.79657 24.2034C3.625 23.0319 3.625 21.1462 3.625 17.375V11.625Z" stroke="#33363F" stroke-width="2"/>
<path fill-rule="evenodd" clip-rule="evenodd" d="M23.375 17.1273L22.8206 16.5729L22.7757 16.528C22.1709 15.9232 21.6497 15.4019 21.1767 15.0377C20.6705 14.6481 20.1083 14.348 19.4138 14.3294C19.3602 14.3279 19.3065 14.3279 19.2529 14.3294C18.5583 14.348 17.9961 14.6481 17.49 15.0377C17.0169 15.4019 16.4957 15.9232 15.8909 16.528L15.8909 16.5281L15.8461 16.5729C15.3674 17.0516 15.084 17.3315 14.8637 17.4967L14.852 17.5054L14.8444 17.493C14.7012 17.2578 14.542 16.8927 14.2753 16.2704L14.1215 15.9114L14.09 15.838L14.09 15.838C13.5897 14.6704 13.1702 13.6916 12.7375 12.9882C12.285 12.2527 11.6945 11.6105 10.7677 11.432C9.84086 11.2535 9.05413 11.6305 8.36081 12.1454C7.69783 12.6377 6.94486 13.3907 6.04665 14.289L6.04665 14.289L5.99021 14.3454L5.625 14.7106V17.3749C5.625 17.4301 5.625 17.4849 5.62501 17.5391L7.40442 15.7596C8.37407 14.79 9.02307 14.1447 9.55317 13.7511C10.0668 13.3697 10.2743 13.3738 10.3895 13.3959C10.5047 13.4181 10.6989 13.4914 11.0341 14.0363C11.3801 14.5986 11.743 15.4388 12.2832 16.6992L12.4371 17.0582L12.4628 17.1184L12.4628 17.1184C12.6947 17.6595 12.9093 18.1607 13.1362 18.5332C13.3808 18.9349 13.7563 19.3869 14.3939 19.5319C14.4372 19.5417 14.4808 19.5501 14.5247 19.5571C15.1705 19.6593 15.6871 19.379 16.0634 19.0969C16.4123 18.8353 16.7978 18.4497 17.214 18.0334L17.2603 17.9871C17.9228 17.3246 18.3523 16.8979 18.71 16.6225C19.0464 16.3636 19.2042 16.3314 19.3065 16.3286C19.3244 16.3282 19.3423 16.3282 19.3601 16.3286C19.4625 16.3314 19.6203 16.3636 19.9566 16.6225C20.3143 16.8979 20.7439 17.3246 21.4064 17.9871L23.3542 19.935C23.3738 19.2388 23.375 18.4031 23.375 17.3749V17.1273ZM14.7235 17.5871C14.7211 17.588 14.7198 17.5885 14.7198 17.5886C14.7198 17.5886 14.7201 17.5885 14.7208 17.5883C14.7214 17.588 14.7223 17.5877 14.7235 17.5871ZM14.9409 17.629C14.9429 17.6307 14.9439 17.6317 14.9438 17.6317C14.9438 17.6318 14.9429 17.631 14.9409 17.629Z" fill="#33363F"/>
<circle cx="19.9375" cy="9.0625" r="1.8125" fill="#33363F"/>
</svg>
