<svg width="31" height="31" viewBox="0 0 31 31" fill="none" xmlns="http://www.w3.org/2000/svg">
<path d="M3.875 7.875C3.875 6.47487 3.875 5.7748 4.14748 5.24002C4.38717 4.76962 4.76962 4.38717 5.24002 4.14748C5.7748 3.875 6.47487 3.875 7.875 3.875H23.125C24.5251 3.875 25.2252 3.875 25.76 4.14748C26.2304 4.38717 26.6128 4.76962 26.8525 5.24002C27.125 5.7748 27.125 6.47487 27.125 7.875V23.125C27.125 24.5251 27.125 25.2252 26.8525 25.76C26.6128 26.2304 26.2304 26.6128 25.76 26.8525C25.2252 27.125 24.5251 27.125 23.125 27.125H7.875C6.47487 27.125 5.7748 27.125 5.24002 26.8525C4.76962 26.6128 4.38717 26.2304 4.14748 25.76C3.875 25.2252 3.875 24.5251 3.875 23.125V7.875Z" stroke="#A42823" stroke-width="2"/>
<circle cx="10.333" cy="15.5" r="2.875" stroke="#A42823" stroke-width="2"/>
<path d="M12.917 15.5H18.0837M21.9587 18.0833V15.65C21.9587 15.5672 21.8915 15.5 21.8087 15.5H18.0837M18.0837 15.5V18.0833" stroke="#A42823" stroke-width="2" stroke-linecap="round"/>
</svg>
