<svg width="34" height="32" viewBox="0 0 34 32" fill="none" xmlns="http://www.w3.org/2000/svg">
<path d="M6 16C6 14.1144 6 13.1716 6.58579 12.5858C7.17157 12 8.11438 12 10 12H24.6667C26.5523 12 27.4951 12 28.0809 12.5858C28.6667 13.1716 28.6667 14.1144 28.6667 16V22C28.6667 24.8284 28.6667 26.2426 27.788 27.1213C26.9093 28 25.4951 28 22.6667 28H12C9.17157 28 7.75736 28 6.87868 27.1213C6 26.2426 6 24.8284 6 22V16Z" stroke="#A42823" stroke-width="1.2"/>
<path d="M23.0003 10.6667V9.66667C23.0003 9.04753 23.0003 8.73796 22.9729 8.47736C22.7262 6.1295 20.8708 4.27416 18.523 4.02739C18.2624 4 17.9528 4 17.3337 4V4C16.7145 4 16.405 4 16.1443 4.02739C13.7965 4.27416 11.9412 6.1295 11.6944 8.47736C11.667 8.73796 11.667 9.04753 11.667 9.66667V10.6667" stroke="#A42823" stroke-width="1.2" stroke-linecap="round"/>
<ellipse cx="17.3333" cy="20" rx="2.83333" ry="2.66667" fill="#A42823"/>
</svg>
