<svg width="58" height="67" viewBox="0 0 58 67" fill="none" xmlns="http://www.w3.org/2000/svg">
<path d="M9.515 30.045H11.015V28.545V19.03C11.015 9.39193 18.9069 1.5 28.545 1.5C38.1831 1.5 46.075 9.39193 46.075 19.03V28.545V30.045H47.575H55.59V50.605C55.59 58.6131 49.0981 65.105 41.09 65.105H16C7.99187 65.105 1.5 58.6132 1.5 50.605V30.045H9.515ZM38.06 30.045H39.56V28.545V19.03C39.56 12.8732 34.7018 8.015 28.545 8.015C22.3882 8.015 17.53 12.8732 17.53 19.03V28.545V30.045H19.03H38.06Z" stroke="#A42823" stroke-width="3"/>
</svg>
