<svg width="19" height="20" viewBox="0 0 19 20" fill="none" xmlns="http://www.w3.org/2000/svg">
<path d="M16.0447 4.13599C13.5071 2.128 10.1343 1.67094 7.33247 2.27654C4.1978 -1.34441 0.68512 0.321085 0 0.799875C0 0.799875 2.41062 3.25308 2.01908 5.4017C-0.834877 8.88596 0.521839 12.7653 2.01908 14.5971C2.41062 16.7457 0 19.1989 0 19.1989C0.678523 19.6793 4.18164 21.3396 7.33247 17.7372C10.128 18.3389 13.5009 17.8858 16.0447 15.8742C19.9787 12.8664 19.9915 7.15964 16.0447 4.13599ZM9.70383 15.8549C8.72279 15.8583 7.74562 15.7072 6.79743 15.4057L6.1453 16.1599C5.78307 16.5806 5.37747 16.9442 4.93834 17.2419C4.40557 17.5631 3.82679 17.7606 3.23263 17.8238C3.25441 17.7773 3.27446 17.7309 3.29403 17.6856C3.30409 17.6623 3.31403 17.6393 3.324 17.6168C3.97647 16.1683 4.15239 14.8687 3.85178 13.7181C2.77874 12.7064 2.13651 11.4134 2.13651 9.99959C2.13651 6.76025 5.52549 4.13599 9.70383 4.13599C13.8822 4.13599 17.2712 6.76025 17.2712 9.99959C17.2712 13.2389 13.8822 15.8549 9.70383 15.8549ZM6.07339 11.3941C5.77381 11.3992 5.48477 11.2618 5.2696 11.0121C5.05443 10.7624 4.93068 10.4208 4.92548 10.062C4.90238 8.26891 7.16292 8.2298 7.18568 10.0189V10.0391C7.18707 10.2156 7.15939 10.3907 7.10423 10.5544C7.04907 10.7181 6.96751 10.8672 6.8642 10.9931C6.7609 11.119 6.63788 11.2193 6.50219 11.2883C6.36649 11.3572 6.22078 11.3934 6.07339 11.3949V11.3941ZM8.50677 10.062C8.48071 8.26891 10.7412 8.22585 10.7673 10.015V10.0391C10.7802 11.8199 8.53283 11.8393 8.50677 10.062ZM13.2363 11.3941C12.9367 11.3992 12.6476 11.2618 12.4324 11.0121C12.2172 10.7625 12.0934 10.4208 12.0881 10.062C12.0653 8.26891 14.3258 8.2298 14.3486 10.0189V10.0391C14.3505 10.2158 14.3231 10.3911 14.2681 10.5551C14.2131 10.719 14.1316 10.8683 14.0282 10.9944C13.9248 11.1204 13.8016 11.2207 13.6657 11.2894C13.5298 11.3582 13.3838 11.394 13.2363 11.3949V11.3941Z" fill="#979797"/>
<path d="M16.0447 4.13599C13.5071 2.128 10.1343 1.67094 7.33247 2.27654C4.1978 -1.34441 0.68512 0.321085 0 0.799875C0 0.799875 2.41062 3.25308 2.01908 5.4017C-0.834877 8.88596 0.521839 12.7653 2.01908 14.5971C2.41062 16.7457 0 19.1989 0 19.1989C0.678523 19.6793 4.18164 21.3396 7.33247 17.7372C10.128 18.3389 13.5009 17.8858 16.0447 15.8742C19.9787 12.8664 19.9915 7.15964 16.0447 4.13599ZM9.70383 15.8549C8.72279 15.8583 7.74562 15.7072 6.79743 15.4057L6.1453 16.1599C5.78307 16.5806 5.37747 16.9442 4.93834 17.2419C4.40557 17.5631 3.82679 17.7606 3.23263 17.8238C3.25441 17.7773 3.27446 17.7309 3.29403 17.6856C3.30409 17.6623 3.31403 17.6393 3.324 17.6168C3.97647 16.1683 4.15239 14.8687 3.85178 13.7181C2.77874 12.7064 2.13651 11.4134 2.13651 9.99959C2.13651 6.76025 5.52549 4.13599 9.70383 4.13599C13.8822 4.13599 17.2712 6.76025 17.2712 9.99959C17.2712 13.2389 13.8822 15.8549 9.70383 15.8549ZM6.07339 11.3941C5.77381 11.3992 5.48477 11.2618 5.2696 11.0121C5.05443 10.7624 4.93068 10.4208 4.92548 10.062C4.90238 8.26891 7.16292 8.2298 7.18568 10.0189V10.0391C7.18707 10.2156 7.15939 10.3907 7.10423 10.5544C7.04907 10.7181 6.96751 10.8672 6.8642 10.9931C6.7609 11.119 6.63788 11.2193 6.50219 11.2883C6.36649 11.3572 6.22078 11.3934 6.07339 11.3949V11.3941ZM8.50677 10.062C8.48071 8.26891 10.7412 8.22585 10.7673 10.015V10.0391C10.7802 11.8199 8.53283 11.8393 8.50677 10.062ZM13.2363 11.3941C12.9367 11.3992 12.6476 11.2618 12.4324 11.0121C12.2172 10.7625 12.0934 10.4208 12.0881 10.062C12.0653 8.26891 14.3258 8.2298 14.3486 10.0189V10.0391C14.3505 10.2158 14.3231 10.3911 14.2681 10.5551C14.2131 10.719 14.1316 10.8683 14.0282 10.9944C13.9248 11.1204 13.8016 11.2207 13.6657 11.2894C13.5298 11.3582 13.3838 11.394 13.2363 11.3949V11.3941Z" stroke="black"/>
</svg>
