<svg width="29" height="29" viewBox="0 0 29 29" fill="none" xmlns="http://www.w3.org/2000/svg">
<path d="M5.02471 16.8328C4.16316 15.3969 4.16316 13.6031 5.02471 12.1672C5.28761 11.729 5.72317 11.422 6.22424 11.3218L8.26999 10.9127C8.39187 10.8883 8.50173 10.8229 8.5813 10.7274L11.6708 7.01999C12.8534 5.60092 13.4447 4.89138 13.9723 5.08242C14.5 5.27346 14.5 6.19707 14.5 8.04428L14.5 20.9557C14.5 22.8029 14.5 23.7265 13.9723 23.9176C13.4447 24.1086 12.8534 23.3991 11.6708 21.98L8.5813 18.2726C8.50173 18.1771 8.39187 18.1117 8.26999 18.0873L6.22424 17.6782C5.72317 17.578 5.28761 17.271 5.02471 16.8328Z" fill="#222222"/>
<path d="M17.5638 10.2279C18.691 11.3551 19.327 12.8821 19.3333 14.4762C19.3396 16.0703 18.7156 17.6023 17.5973 18.7383" stroke="#222222" stroke-width="2" stroke-linecap="round"/>
<path d="M22.5435 7.66463C24.3471 9.46816 25.3647 11.9114 25.3748 14.4619C25.3848 17.0125 24.3864 19.4636 22.5972 21.2813" stroke="#222222" stroke-width="2" stroke-linecap="round"/>
</svg>
