<svg width="48" height="48" viewBox="0 0 48 48" fill="none" xmlns="http://www.w3.org/2000/svg">
<path d="M8.31676 27.8613C6.89075 25.4846 6.89075 22.5154 8.31676 20.1387C8.75191 19.4135 9.47283 18.9054 10.3022 18.7396L13.6883 18.0623C13.89 18.022 14.0718 17.9138 14.2035 17.7558L21.1708 9.39498C22.3534 7.97592 22.9447 7.26638 23.4723 7.45742C24 7.64846 24 8.57207 24 10.4193L24 37.5807C24 39.4279 24 40.3515 23.4723 40.5426C22.9447 40.7336 22.3534 40.0241 21.1708 38.605L14.2035 30.2442C14.0718 30.0862 13.89 29.978 13.6883 29.9377L10.3022 29.2604C9.47283 29.0946 8.75191 28.5865 8.31676 27.8613Z" fill="white"/>
<path d="M29.0711 16.9289C30.9368 18.7946 31.9895 21.3221 31.9999 23.9606C32.0103 26.5991 30.9775 29.1348 29.1266 31.0151" stroke="white" stroke-width="2" stroke-linecap="round"/>
<path d="M37.3137 12.6863C40.2988 15.6714 41.9832 19.7154 41.9999 23.937C42.0165 28.1586 40.364 32.2157 37.4025 35.2242" stroke="white" stroke-width="2" stroke-linecap="round"/>
</svg>
