<svg width="37" height="32" viewBox="0 0 37 32" fill="none" xmlns="http://www.w3.org/2000/svg">
<path d="M21 10.6667C21 13.0311 19.0145 15 16.5 15C13.9855 15 12 13.0311 12 10.6667C12 8.30222 13.9855 6.33333 16.5 6.33333C19.0145 6.33333 21 8.30222 21 10.6667Z" stroke="#A42823" stroke-width="2" stroke-linecap="round"/>
<path d="M7.10975 21.2831C7.98211 19.0601 10.3206 18 12.7086 18H20.2914C22.6794 18 25.0179 19.0601 25.8903 21.2831C26.3023 22.3332 26.6533 23.5931 26.7707 25.0003C26.8166 25.5506 26.3648 26 25.8125 26H7.1875C6.63522 26 6.1834 25.5506 6.22931 25.0003C6.34668 23.5931 6.69768 22.3332 7.10975 21.2831Z" stroke="#A42823" stroke-width="2" stroke-linecap="round"/>
<path d="M25.774 25.7447L20.2489 20.079C19.917 19.7386 19.917 19.1867 20.2489 18.8462L21.451 17.6135C21.7829 17.2731 22.3212 17.2731 22.6531 17.6135L26.375 21.4302L34.3469 13.2553C34.6788 12.9149 35.2171 12.9149 35.549 13.2553L36.7511 14.488C37.083 14.8284 37.083 15.3803 36.7511 15.7207L26.976 25.7447C26.6441 26.0851 26.1059 26.0851 25.774 25.7447Z" fill="#A42823"/>
</svg>
